<?xml version="1.0" standalone="no"?>
<!DOCTYPE svg PUBLIC "-//W3C//DTD SVG 20010904//EN"
 "http://www.w3.org/TR/2001/REC-SVG-20010904/DTD/svg10.dtd">
<svg version="1.0" xmlns="http://www.w3.org/2000/svg"
 width="250.000000pt" height="250.000000pt" viewBox="0 0 250.000000 250.000000"
 preserveAspectRatio="xMidYMid meet">
<metadata>
Created by potrace 1.10, written by Peter Selinger 2001-2011
</metadata>
<g transform="translate(0.000000,250.000000) scale(0.100000,-0.100000)"
fill="#000000" stroke="none">
<path d="M1353 1621 c-18 -21 -30 -41 -27 -44 10 -10 53 15 59 35 6 17 27 27
23 11 -3 -14 25 -62 33 -58 4 3 10 1 14 -5 3 -5 2 -10 -3 -10 -5 0 -9 -13 -9
-29 0 -22 3 -26 12 -17 7 6 10 18 8 26 -3 8 4 4 16 -10 12 -16 16 -29 10 -34
-5 -6 -9 -14 -9 -20 0 -6 5 -5 12 2 15 15 31 16 22 0 -4 -7 -3 -8 4 -4 11 7
16 -5 13 -30 -1 -6 7 -18 16 -25 16 -13 17 -12 4 4 -8 9 -12 20 -9 23 7 6 58
-61 58 -76 0 -6 4 -9 9 -6 11 7 47 -32 38 -41 -4 -3 -7 -2 -7 4 0 6 -7 14 -16
17 -9 4 -13 2 -8 -5 4 -6 0 -15 -7 -20 -9 -5 0 -7 23 -4 21 3 37 2 36 -3 -2
-4 23 -32 55 -63 31 -31 57 -62 57 -69 0 -7 3 -10 7 -7 3 4 19 -7 35 -23 15
-16 28 -27 28 -24 0 3 14 -4 30 -16 17 -12 27 -26 24 -32 -5 -7 0 -9 14 -6 12
4 22 2 22 -3 0 -5 8 -9 18 -9 15 -1 15 -2 -3 -16 -19 -16 -19 -16 5 -9 19 5
21 4 10 -4 -8 -6 -23 -11 -33 -11 -11 0 -15 -4 -11 -12 4 -6 3 -8 -4 -4 -6 3
-53 1 -104 -4 -51 -6 -123 -11 -160 -11 -38 0 -68 -4 -68 -9 0 -22 -19 -8 -29
21 -14 40 -14 52 -1 44 13 -8 13 -7 -9 58 -13 37 -16 57 -9 59 7 3 4 24 -9 64
l-20 59 -17 -59 c-13 -45 -15 -65 -7 -89 14 -38 14 -50 1 -42 -14 9 -13 -5 5
-55 20 -56 19 -60 -9 -60 -14 0 -28 -4 -31 -10 -3 -6 5 -10 18 -10 20 0 26 -6
29 -30 5 -32 -4 -36 -47 -22 -15 5 -20 16 -20 45 0 33 3 37 25 38 14 1 28 1
32 0 4 0 5 6 1 15 -4 11 -8 12 -13 4 -13 -21 -25 -15 -31 16 l-7 29 -1 -27
c-1 -34 -20 -46 -37 -24 -7 10 -17 15 -23 12 -5 -4 -15 2 -21 11 -7 12 -10 13
-7 3 2 -8 -3 -20 -12 -27 -13 -10 -10 -12 22 -13 34 0 37 -2 37 -29 0 -16 6
-31 13 -34 6 -2 10 -7 7 -9 -3 -3 -26 1 -52 9 -55 16 -59 30 -32 115 10 28 13
53 8 56 -11 8 -14 75 -4 82 3 3 -2 34 -13 70 l-20 65 -18 -65 c-11 -39 -15
-68 -9 -74 5 -5 2 -28 -10 -57 -10 -27 -14 -49 -10 -49 17 0 40 12 40 22 0 5
-4 6 -10 3 -5 -3 -10 1 -10 9 0 9 4 16 10 16 5 0 7 6 4 14 -3 8 0 17 6 21 9 6
9 10 -1 16 -11 7 -11 9 1 9 10 0 11 3 3 8 -8 5 -9 18 -3 42 l8 35 2 -35 c2
-19 4 -42 5 -50 1 -8 -3 -21 -8 -27 -6 -9 -5 -13 2 -13 8 0 10 -8 6 -19 -3
-11 -1 -22 5 -26 5 -3 10 -11 10 -16 0 -6 -5 -7 -11 -3 -8 5 -8 1 0 -14 7 -12
7 -23 2 -26 -5 -4 -12 0 -15 6 -3 7 -3 0 0 -17 4 -23 3 -27 -5 -15 -8 11 -11
12 -11 2 0 -7 -4 -10 -10 -7 -6 4 -4 18 6 37 11 22 12 29 3 26 -7 -2 -21 -23
-30 -46 l-18 -42 29 0 c20 0 30 -5 30 -15 0 -21 -6 -20 -96 19 -140 61 -246
87 -384 93 -178 8 -272 -18 -391 -108 -38 -29 -46 -40 -29 -35 240 64 462 42
799 -79 126 -45 249 -66 389 -66 205 0 326 41 444 150 58 54 77 84 36 57 -34
-22 -171 -66 -256 -82 -40 -8 -121 -14 -178 -14 l-104 0 0 30 c0 34 -7 32 145
30 115 -1 247 24 318 62 l59 32 -39 11 c-58 18 -103 43 -158 90 -141 121 -220
209 -431 483 -14 17 -28 32 -32 31 -4 0 -22 -18 -39 -38z m161 -422 c-3 -6 -1
-15 6 -19 7 -4 9 -13 5 -21 -6 -9 -11 -6 -17 10 -7 21 -4 41 8 41 3 0 2 -5 -2
-11z m11 -78 c3 -5 1 -12 -5 -16 -5 -3 -10 1 -10 9 0 18 6 21 15 7z m16 -45
c5 -48 2 -86 -6 -90 -6 -2 -11 8 -10 23 0 14 -5 32 -12 39 -7 7 -10 18 -7 26
6 15 34 17 35 2z m-633 -40 c33 -2 59 -10 71 -20 11 -10 26 -16 33 -13 8 4 7
6 -4 6 -10 1 -18 5 -18 10 0 5 17 3 38 -5 20 -7 44 -13 53 -14 9 0 26 -9 39
-20 13 -11 31 -20 40 -20 9 0 20 -3 24 -7 4 -5 11 -8 14 -9 4 0 26 -6 50 -14
29 -9 39 -16 30 -22 -8 -5 2 -6 24 -4 21 3 40 0 43 -5 4 -5 23 -9 44 -9 20 0
42 -5 47 -10 6 -6 37 -11 70 -12 32 -1 51 -3 42 -6 -10 -2 -18 -8 -18 -13 0
-6 -6 -7 -12 -3 -10 5 -10 3 0 -7 11 -12 14 -12 22 1 6 10 29 15 72 16 35 1
71 5 81 9 9 4 27 5 39 2 12 -3 30 -2 40 4 10 5 39 10 64 11 30 0 41 4 33 9
-13 8 -8 9 49 9 14 0 7 -33 -8 -37 -13 -4 -13 -3 0 7 13 9 12 10 -5 7 -11 -2
-19 -8 -18 -14 3 -14 -32 -27 -46 -18 -5 3 -12 1 -16 -5 -3 -5 -21 -10 -38
-11 -27 0 -29 -2 -12 -9 13 -6 3 -7 -30 -4 -27 2 -42 1 -33 -3 10 -5 -9 -8
-47 -8 -54 0 -66 3 -74 20 -5 11 -10 15 -10 8 -1 -7 -8 -10 -18 -6 -11 4 -14
3 -9 -6 5 -7 14 -10 22 -7 8 3 14 0 14 -6 0 -21 -300 20 -308 43 -2 5 -8 9
-13 9 -6 0 -7 -5 -4 -11 5 -7 2 -7 -11 0 -37 21 -127 50 -137 44 -6 -3 -7 -1
-3 5 4 6 -7 13 -26 17 -18 4 -52 13 -75 21 -23 7 -50 11 -60 8 -10 -3 -7 2 7
10 14 8 22 15 18 16 -3 0 -15 3 -25 6 -13 4 -14 3 -5 -3 8 -7 -4 -10 -38 -11
-27 0 -50 2 -50 6 0 9 -9 9 -188 15 -79 3 -146 8 -150 12 -4 4 4 4 17 0 15 -5
21 -4 17 3 -4 7 8 14 29 18 19 3 35 10 35 14 0 4 26 8 57 9 31 1 59 4 62 7 3
3 31 2 62 -1 31 -4 79 -8 107 -9z m1082 -118 c-8 -7 -20 -19 -27 -26 -7 -8
-13 -10 -17 -3 -4 5 6 17 21 25 35 19 41 20 23 4z"/>
<path d="M624 1021 c-5 -5 -18 -11 -29 -14 -20 -5 -20 -5 0 -6 22 -1 52 15 44
23 -3 3 -10 2 -15 -3z"/>
<path d="M940 1016 c0 -2 7 -7 16 -10 8 -3 12 -2 9 4 -6 10 -25 14 -25 6z"/>
<path d="M918 993 c6 -2 18 -2 25 0 6 3 1 5 -13 5 -14 0 -19 -2 -12 -5z"/>
<path d="M1038 993 c7 -3 16 -2 19 1 4 3 -2 6 -13 5 -11 0 -14 -3 -6 -6z"/>
<path d="M990 980 c20 -13 33 -13 25 0 -3 6 -14 10 -23 10 -15 0 -15 -2 -2
-10z"/>
<path d="M998 953 c7 -3 16 -2 19 1 4 3 -2 6 -13 5 -11 0 -14 -3 -6 -6z"/>
<path d="M1200 930 c0 -5 5 -10 11 -10 5 0 7 5 4 10 -3 6 -8 10 -11 10 -2 0
-4 -4 -4 -10z"/>
<path d="M1175 890 c11 -5 27 -9 35 -9 9 0 8 4 -5 9 -11 5 -27 9 -35 9 -9 0
-8 -4 5 -9z"/>
<path d="M1238 873 c7 -3 16 -2 19 1 4 3 -2 6 -13 5 -11 0 -14 -3 -6 -6z"/>
<path d="M1468 853 c6 -2 18 -2 25 0 6 3 1 5 -13 5 -14 0 -19 -2 -12 -5z"/>
<path d="M1715 850 c3 -5 8 -10 11 -10 2 0 4 5 4 10 0 6 -5 10 -11 10 -5 0 -7
-4 -4 -10z"/>
<path d="M1770 850 c-13 -8 -13 -10 2 -10 9 0 20 5 23 10 8 13 -5 13 -25 0z"/>
<path d="M1221 1479 c-51 -55 -91 -103 -87 -106 3 -3 12 0 20 6 11 9 16 9 22
0 4 -7 3 -9 -3 -6 -12 7 -38 -22 -38 -43 0 -8 -7 -15 -15 -15 -8 0 -15 -4 -15
-10 0 -5 -9 -23 -19 -38 -17 -25 -21 -26 -29 -12 -14 25 -1 47 25 41 13 -3 17
-3 10 0 -10 5 -6 14 15 36 25 26 26 30 11 39 -9 5 -14 17 -12 27 3 11 -9 33
-34 60 -32 34 -45 42 -75 42 -56 0 -127 -72 -127 -129 0 -20 1 -20 19 -4 11 9
17 22 14 29 -3 8 -1 14 5 14 5 0 13 12 16 26 5 18 12 24 22 20 9 -3 12 -1 9 4
-6 10 18 14 65 10 32 -2 52 -28 44 -54 -6 -19 -5 -20 11 -6 17 14 18 13 13 -7
-4 -14 -1 -24 8 -27 22 -8 17 -17 -46 -84 -35 -38 -57 -69 -53 -78 3 -7 9 -11
14 -8 5 3 7 10 4 15 -6 9 17 39 29 39 3 0 6 -9 6 -21 0 -11 -4 -18 -8 -15 -4
2 -14 -10 -22 -27 -7 -17 -15 -26 -18 -19 -2 7 -8 12 -14 12 -6 0 -8 -6 -5
-12 3 -10 -25 -14 -119 -15 -124 -3 -154 5 -119 31 10 7 16 19 13 26 -3 9 -25
-7 -66 -47 -34 -33 -62 -63 -62 -66 0 -3 17 1 38 10 26 11 81 17 187 20 103 4
153 9 160 18 22 28 103 122 153 179 63 72 76 93 63 101 -5 3 -12 -4 -16 -15
-4 -11 -11 -18 -16 -15 -10 7 -6 13 38 60 15 17 20 21 10 9 -15 -18 -16 -23
-3 -33 12 -10 16 -9 23 6 5 10 8 27 8 38 0 24 44 68 61 61 7 -3 18 1 24 9 9
10 7 13 -7 10 -10 -1 -23 1 -28 6 -7 5 -47 -31 -104 -92z m42 -24 c-3 -9 -8
-14 -10 -11 -3 3 -2 9 2 15 9 16 15 13 8 -4z m-536 -301 c-3 -3 -12 -4 -19 -1
-8 3 -5 6 6 6 11 1 17 -2 13 -5z"/>
<path d="M968 1533 c6 -2 18 -2 25 0 6 3 1 5 -13 5 -14 0 -19 -2 -12 -5z"/>
<path d="M1196 1528 c3 -5 10 -6 15 -3 13 9 11 12 -6 12 -8 0 -12 -4 -9 -9z"/>
<path d="M1591 1484 c0 -11 3 -14 6 -6 3 7 2 16 -1 19 -3 4 -6 -2 -5 -13z"/>
<path d="M1371 1444 c0 -11 3 -14 6 -6 3 7 2 16 -1 19 -3 4 -6 -2 -5 -13z"/>
<path d="M1421 1444 c0 -11 3 -14 6 -6 3 7 2 16 -1 19 -3 4 -6 -2 -5 -13z"/>
<path d="M1390 1422 c-8 -15 -16 -30 -18 -34 -2 -5 1 -8 5 -8 9 0 35 61 30 67
-2 2 -10 -9 -17 -25z"/>
<path d="M930 1429 c0 -5 5 -7 10 -4 6 3 10 8 10 11 0 2 -4 4 -10 4 -5 0 -10
-5 -10 -11z"/>
<path d="M960 1424 c0 -8 5 -12 10 -9 6 3 10 10 10 16 0 5 -4 9 -10 9 -5 0
-10 -7 -10 -16z"/>
<path d="M1047 1433 c-4 -3 -7 -11 -7 -17 0 -6 5 -5 12 2 6 6 9 14 7 17 -3 3
-9 2 -12 -2z"/>
<path d="M1170 1257 c-44 -91 -80 -170 -80 -175 0 -9 103 -55 136 -59 13 -2
24 3 28 12 5 13 1 15 -16 9 -19 -6 -21 -5 -11 8 11 12 8 14 -15 11 -15 -2 -44
4 -65 15 l-38 18 21 27 c12 15 18 32 14 38 -4 7 -3 9 3 6 12 -7 23 14 23 42 0
9 7 26 15 37 15 19 15 19 8 -1 -3 -11 -3 -17 1 -14 4 4 9 16 11 28 7 38 17 65
31 85 12 18 14 17 29 -15 10 -22 13 -25 9 -9 -4 14 -7 39 -8 57 0 17 -4 35 -8
39 -4 4 -44 -68 -88 -159z"/>
<path d="M1396 1363 c-20 -63 -25 -82 -19 -70 8 13 21 8 26 -10 4 -17 5 -17 6
0 1 12 6 16 14 11 7 -4 9 -3 4 2 -5 5 -14 9 -19 9 -6 0 -13 6 -16 14 -3 8 0
11 6 7 6 -4 8 2 5 16 -3 17 -2 19 5 9 14 -19 25 19 14 48 -7 19 -10 14 -26
-36z m21 5 c-3 -8 -6 -5 -6 6 -1 11 2 17 5 13 3 -3 4 -12 1 -19z"/>
<path d="M1517 1397 c-3 -8 1 -14 8 -14 7 0 11 6 8 14 -3 7 -6 13 -8 13 -2 0
-5 -6 -8 -13z"/>
<path d="M1446 1380 c3 -14 10 -29 15 -34 14 -16 10 6 -7 34 l-15 25 7 -25z"/>
<path d="M1050 1386 c0 -2 8 -10 18 -17 15 -13 16 -12 3 4 -13 16 -21 21 -21
13z"/>
<path d="M750 1323 c-36 -30 -76 -65 -90 -77 -73 -62 -182 -146 -191 -146 -5
0 -9 -4 -9 -9 0 -6 9 -9 20 -8 10 1 17 3 15 6 -3 2 41 31 98 64 56 33 114 68
129 78 26 18 29 19 53 3 14 -9 28 -14 31 -11 3 3 -4 8 -15 12 -12 3 -21 10
-21 15 0 5 -14 8 -30 7 -19 -1 -28 -7 -26 -14 3 -7 -1 -10 -8 -7 -8 3 -17 1
-21 -5 -3 -6 -12 -11 -18 -11 -7 0 1 11 18 24 16 13 33 22 37 19 5 -2 8 1 8 6
0 6 8 11 17 11 9 0 13 3 10 6 -9 9 33 45 44 38 5 -3 9 3 9 13 1 17 2 17 15 -1
8 -11 15 -16 15 -11 0 5 9 -1 20 -13 11 -12 20 -26 20 -32 0 -6 4 -9 9 -6 4 3
19 -6 32 -20 13 -14 33 -31 44 -36 14 -8 11 -1 -10 22 -34 37 -136 140 -139
139 0 0 -30 -25 -66 -56z"/>
<path d="M960 1369 c0 -5 5 -7 10 -4 6 3 10 8 10 11 0 2 -4 4 -10 4 -5 0 -10
-5 -10 -11z"/>
<path d="M1361 1324 c0 -11 3 -14 6 -6 3 7 2 16 -1 19 -3 4 -6 -2 -5 -13z"/>
<path d="M1751 1314 c0 -11 3 -14 6 -6 3 7 2 16 -1 19 -3 4 -6 -2 -5 -13z"/>
<path d="M1444 1295 c2 -16 0 -35 -5 -41 -9 -11 8 -90 17 -81 3 3 1 21 -4 41
-9 30 -8 36 4 36 11 0 13 6 8 23 -12 41 -24 54 -20 22z"/>
<path d="M1471 1304 c0 -11 3 -14 6 -6 3 7 2 16 -1 19 -3 4 -6 -2 -5 -13z"/>
<path d="M800 1299 c0 -5 5 -7 10 -4 6 3 10 8 10 11 0 2 -4 4 -10 4 -5 0 -10
-5 -10 -11z"/>
<path d="M1500 1300 c-12 -7 -10 -9 7 -7 12 0 19 5 17 9 -6 10 -6 10 -24 -2z"/>
<path d="M1337 1285 c-4 -8 -1 -17 6 -21 7 -4 9 -4 5 1 -4 4 -3 14 3 22 7 8 8
13 1 13 -5 0 -12 -7 -15 -15z"/>
<path d="M1060 1280 c0 -5 5 -10 10 -10 6 0 10 5 10 10 0 6 -4 10 -10 10 -5 0
-10 -4 -10 -10z"/>
<path d="M1480 1260 c0 -11 -4 -20 -10 -20 -5 0 -10 -7 -10 -16 0 -13 2 -13
13 -2 17 16 28 58 16 58 -5 0 -9 -9 -9 -20z"/>
<path d="M1365 1260 c-4 -6 1 -10 10 -10 11 0 15 -6 11 -17 -3 -10 2 -29 10
-43 l15 -25 -5 25 c-3 14 -6 35 -6 46 0 23 -25 40 -35 24z"/>
<path d="M1572 1240 c0 -14 2 -19 5 -12 2 6 2 18 0 25 -3 6 -5 1 -5 -13z"/>
<path d="M1411 1234 c0 -11 3 -14 6 -6 3 7 2 16 -1 19 -3 4 -6 -2 -5 -13z"/>
<path d="M1350 1220 c0 -5 5 -10 11 -10 5 0 7 5 4 10 -3 6 -8 10 -11 10 -2 0
-4 -4 -4 -10z"/>
<path d="M1565 1203 c11 -3 23 -10 27 -17 5 -7 8 -5 8 7 0 12 -7 17 -27 16
-22 -1 -23 -2 -8 -6z"/>
<path d="M1366 1170 c-15 -59 -14 -66 8 -67 20 -2 20 -1 3 12 -18 13 -17 14 3
20 14 5 18 10 12 18 -6 7 -12 21 -14 32 -3 15 -6 11 -12 -15z"/>
<path d="M1220 1180 c0 -5 5 -10 11 -10 5 0 7 5 4 10 -3 6 -8 10 -11 10 -2 0
-4 -4 -4 -10z"/>
<path d="M480 1161 c0 -6 4 -13 10 -16 6 -3 7 1 4 9 -7 18 -14 21 -14 7z"/>
<path d="M1241 1152 c-1 -7 -5 -11 -10 -7 -5 3 -13 0 -17 -6 -4 -8 -3 -9 5 -5
9 6 10 0 5 -20 -5 -18 -3 -25 4 -20 6 3 13 0 16 -6 3 -7 3 1 0 17 -4 23 -3 27
5 15 13 -18 13 -3 1 25 -5 11 -9 14 -9 7z"/>
<path d="M1591 1124 c0 -11 3 -14 6 -6 3 7 2 16 -1 19 -3 4 -6 -2 -5 -13z"/>
<path d="M1571 1115 c1 -19 18 -51 18 -35 0 8 -4 22 -9 30 -5 8 -9 11 -9 5z"/>
<path d="M1450 1099 c0 -5 5 -7 10 -4 6 3 10 8 10 11 0 2 -4 4 -10 4 -5 0 -10
-5 -10 -11z"/>
<path d="M1855 1090 c3 -5 11 -10 16 -10 6 0 7 5 4 10 -3 6 -11 10 -16 10 -6
0 -7 -4 -4 -10z"/>
<path d="M1375 1080 c-3 -5 -2 -10 4 -10 5 0 13 5 16 10 3 6 2 10 -4 10 -5 0
-13 -4 -16 -10z"/>
<path d="M518 1063 c7 -3 16 -2 19 1 4 3 -2 6 -13 5 -11 0 -14 -3 -6 -6z"/>
<path d="M1585 1029 c-4 -6 -5 -12 -2 -15 2 -3 7 2 10 11 7 17 1 20 -8 4z"/>
</g>
</svg>
